<svg xmlns="http://www.w3.org/2000/svg" width="2100" height="1200" viewBox="0 0 2100 1200">
  <defs>
    <style>
      .bg { fill: #fbfcfb; }
      .title { font-family: Arial, Helvetica, sans-serif; font-size: 34px; font-weight: 800; fill: #143326; }
      .section-title { font-family: Arial, Helvetica, sans-serif; font-size: 24px; font-weight: 800; fill: #ffffff; }
      .label { font-family: Arial, Helvetica, sans-serif; font-size: 18px; font-weight: 700; fill: #18221d; }
      .small { font-family: Arial, Helvetica, sans-serif; font-size: 15px; fill: #35413b; }
      .tiny { font-family: Arial, Helvetica, sans-serif; font-size: 13px; fill: #43504a; }
      .code { font-family: Consolas, Menlo, monospace; font-size: 15px; fill: #26322d; }
      .shape { fill: #ffffff; stroke: #b7c7bf; stroke-width: 2; }
      .soft-green { fill: #edf8f2; stroke: #16824a; stroke-width: 2.4; }
      .soft-blue { fill: #eef5ff; stroke: #1d60c9; stroke-width: 2.4; }
      .soft-orange { fill: #fff7e8; stroke: #db8a00; stroke-width: 2.4; }
      .soft-red { fill: #fff1ee; stroke: #df3b20; stroke-width: 2.4; }
      .soft-purple { fill: #f5f0ff; stroke: #7654c9; stroke-width: 2.2; }
      .soft-gray { fill: #f5f7f6; stroke: #b7c7bf; stroke-width: 1.8; }
      .green-head { fill: #08733c; }
      .blue-head { fill: #195ec8; }
      .orange-head { fill: #d98200; }
      .red-head { fill: #d93616; }
      .purple-head { fill: #6545b7; }
      .arrow { stroke: #1e2823; stroke-width: 3.2; fill: none; marker-end: url(#arrow); stroke-linecap: round; stroke-linejoin: round; }
      .arrow-soft { stroke: #60736a; stroke-width: 2.4; fill: none; marker-end: url(#arrowSoft); stroke-linecap: round; stroke-linejoin: round; }
      .arrow-mod { stroke: #d28400; stroke-width: 3.4; fill: none; marker-end: url(#arrowMod); stroke-linecap: round; stroke-linejoin: round; stroke-dasharray: 8 7; }
      .arrow-film { stroke: #0a7a4b; stroke-width: 3.4; fill: none; marker-end: url(#arrowFilm); stroke-linecap: round; stroke-linejoin: round; stroke-dasharray: 8 7; }
      .token-green { fill: #24b36b; stroke: #08733c; stroke-width: 1.4; }
      .token-blue { fill: #3f73db; stroke: #174fba; stroke-width: 1.4; }
      .token-orange { fill: #f5b642; stroke: #bf7200; stroke-width: 1.4; }
      .token-red { fill: #ee7566; stroke: #ca3729; stroke-width: 1.3; }
      .bond { stroke: #343a36; stroke-width: 3; stroke-linecap: round; }
      .bond-light { stroke: #7c8781; stroke-width: 2.2; stroke-linecap: round; }
      .atom-c { fill: #34b77a; stroke: #12643d; stroke-width: 1.5; }
      .atom-o { fill: #e64646; stroke: #941d1d; stroke-width: 1.5; }
      .atom-n { fill: #3d7cf0; stroke: #174b9f; stroke-width: 1.5; }
      .atom-h { fill: #e7ece9; stroke: #8a9690; stroke-width: 1.2; }
      .shadow { filter: url(#shadow); }
    </style>
    <filter id="shadow" x="-20%" y="-20%" width="140%" height="140%">
      <feDropShadow dx="0" dy="3" stdDeviation="4" flood-color="#000000" flood-opacity="0.10"/>
    </filter>
    <linearGradient id="panelGreen" x1="0" x2="1" y1="0" y2="1">
      <stop offset="0" stop-color="#f6fff9"/>
      <stop offset="1" stop-color="#eaf6ef"/>
    </linearGradient>
    <linearGradient id="panelBlue" x1="0" x2="1" y1="0" y2="1">
      <stop offset="0" stop-color="#f7fbff"/>
      <stop offset="1" stop-color="#eaf2ff"/>
    </linearGradient>
    <marker id="arrow" markerUnits="userSpaceOnUse" markerWidth="12" markerHeight="10" refX="10" refY="5" orient="auto">
      <path d="M0,0 L12,5 L0,10 Z" fill="#1e2823"/>
    </marker>
    <marker id="arrowSoft" markerUnits="userSpaceOnUse" markerWidth="11" markerHeight="9" refX="9" refY="4.5" orient="auto">
      <path d="M0,0 L11,4.5 L0,9 Z" fill="#60736a"/>
    </marker>
    <marker id="arrowMod" markerUnits="userSpaceOnUse" markerWidth="12" markerHeight="10" refX="10" refY="5" orient="auto">
      <path d="M0,0 L12,5 L0,10 Z" fill="#d28400"/>
    </marker>
    <marker id="arrowFilm" markerUnits="userSpaceOnUse" markerWidth="12" markerHeight="10" refX="10" refY="5" orient="auto">
      <path d="M0,0 L12,5 L0,10 Z" fill="#0a7a4b"/>
    </marker>
  </defs>

  <rect class="bg" x="0" y="0" width="2100" height="1200"/>
  <text class="title" x="1050" y="48" text-anchor="middle">TAMR-DTI architecture: target-aware drug conformers and ligand-conditioned protein refinement</text>

  <!-- Offline preprocessing -->
  <rect x="34" y="82" width="585" height="785" rx="22" fill="url(#panelGreen)" stroke="#08733c" stroke-width="2.6"/>
  <rect x="175" y="70" width="300" height="42" rx="10" class="green-head shadow"/>
  <text class="section-title" x="325" y="98" text-anchor="middle">Offline preprocessing</text>

  <!-- 1D preprocessing row -->
  <rect x="62" y="135" width="525" height="175" rx="16" class="soft-green"/>
  <text class="label" x="86" y="166">1D SMILES semantics</text>
  <rect x="82" y="188" width="162" height="92" rx="10" class="shape"/>
  <text class="code" x="100" y="215">CC1=NC(=O)NC</text>
  <text class="code" x="100" y="239">C2=CC=C</text>
  <text class="code" x="100" y="263">C=C12</text>
  <path class="arrow-soft" d="M256 234 L318 234"/>
  <rect x="330" y="185" width="112" height="96" rx="12" class="shape"/>
  <text class="label" x="386" y="222" text-anchor="middle">Chem</text>
  <text class="label" x="386" y="247" text-anchor="middle">BERTa</text>
  <path class="arrow-soft" d="M454 234 L499 234"/>
  <rect x="508" y="187" width="58" height="94" rx="10" class="shape"/>
  <rect x="523" y="204" width="12" height="55" rx="2" class="token-green"/>
  <rect x="544" y="204" width="12" height="55" rx="2" class="token-green"/>
  <text class="tiny" x="537" y="298" text-anchor="middle">354 x 128</text>

  <!-- 2D preprocessing row -->
  <rect x="62" y="335" width="525" height="175" rx="16" class="soft-green"/>
  <text class="label" x="86" y="366">2D molecular graph</text>
  <g transform="translate(95 393)">
    <line class="bond" x1="0" y1="40" x2="42" y2="16"/>
    <line class="bond" x1="42" y1="16" x2="87" y2="40"/>
    <line class="bond" x1="87" y1="40" x2="132" y2="18"/>
    <line class="bond" x1="132" y1="18" x2="176" y2="40"/>
    <line class="bond" x1="132" y1="18" x2="132" y2="70"/>
    <line class="bond" x1="176" y1="40" x2="216" y2="20"/>
    <circle class="atom-n" cx="0" cy="40" r="9"/>
    <circle class="atom-c" cx="42" cy="16" r="9"/>
    <circle class="atom-c" cx="87" cy="40" r="9"/>
    <circle class="atom-c" cx="132" cy="18" r="9"/>
    <circle class="atom-n" cx="132" cy="70" r="9"/>
    <circle class="atom-c" cx="176" cy="40" r="9"/>
    <circle class="atom-o" cx="216" cy="20" r="9"/>
  </g>
  <path class="arrow-soft" d="M326 432 L383 432"/>
  <rect x="397" y="386" width="93" height="95" rx="12" class="shape"/>
  <text class="label" x="443" y="419" text-anchor="middle">DGL</text>
  <text class="small" x="443" y="445" text-anchor="middle">atom/bond</text>
  <text class="small" x="443" y="466" text-anchor="middle">features</text>
  <path class="arrow-soft" d="M500 432 L525 432"/>
  <rect x="532" y="392" width="36" height="80" rx="7" class="shape"/>
  <text class="tiny" x="550" y="426" text-anchor="middle">G</text>
  <text class="tiny" x="550" y="447" text-anchor="middle">C</text>
  <text class="tiny" x="550" y="468" text-anchor="middle">N</text>
  <text class="tiny" x="540" y="493" text-anchor="middle">290 nodes</text>

  <!-- 3D preprocessing row -->
  <rect x="62" y="535" width="525" height="285" rx="16" class="soft-orange"/>
  <text class="label" x="86" y="566">3D k conformers and energy</text>
  <rect x="84" y="590" width="140" height="188" rx="12" class="shape"/>
  <text class="small" x="154" y="616" text-anchor="middle">RDKit ETKDGv3</text>
  <text class="small" x="154" y="640" text-anchor="middle">AddHs + UFF</text>
  <g transform="translate(108 660)">
    <line class="bond-light" x1="15" y1="32" x2="42" y2="16"/>
    <line class="bond-light" x1="42" y1="16" x2="70" y2="32"/>
    <line class="bond-light" x1="70" y1="32" x2="92" y2="14"/>
    <circle class="atom-c" cx="15" cy="32" r="7"/>
    <circle class="atom-n" cx="42" cy="16" r="7"/>
    <circle class="atom-c" cx="70" cy="32" r="7"/>
    <circle class="atom-o" cx="92" cy="14" r="7"/>
    <line class="bond-light" x1="28" y1="84" x2="52" y2="58"/>
    <line class="bond-light" x1="52" y1="58" x2="82" y2="74"/>
    <line class="bond-light" x1="82" y1="74" x2="105" y2="54"/>
    <circle class="atom-c" cx="28" cy="84" r="7"/>
    <circle class="atom-n" cx="52" cy="58" r="7"/>
    <circle class="atom-c" cx="82" cy="74" r="7"/>
    <circle class="atom-o" cx="105" cy="54" r="7"/>
  </g>
  <path class="arrow-soft" d="M235 685 L300 685"/>
  <rect x="314" y="595" width="115" height="86" rx="12" class="shape"/>
  <text class="small" x="371" y="624" text-anchor="middle">atom feature</text>
  <text class="small" x="371" y="648" text-anchor="middle">pool/pad</text>
  <text class="tiny" x="371" y="669" text-anchor="middle">K x 64 x 128</text>
  <rect x="314" y="704" width="115" height="86" rx="12" class="shape"/>
  <text class="small" x="371" y="733" text-anchor="middle">coordinates</text>
  <text class="small" x="371" y="757" text-anchor="middle">+ energy</text>
  <text class="tiny" x="371" y="779" text-anchor="middle">K x 64 x 3</text>
  <path class="arrow-soft" d="M440 640 L506 640"/>
  <path class="arrow-soft" d="M440 747 L506 747"/>
  <rect x="511" y="608" width="50" height="170" rx="8" class="shape"/>
  <rect x="525" y="624" width="18" height="42" rx="3" class="token-orange"/>
  <rect x="525" y="680" width="18" height="42" rx="3" class="token-orange"/>
  <rect x="525" y="736" width="18" height="28" rx="3" class="token-orange"/>

  <!-- Drug representation and conformer selection -->
  <rect x="655" y="82" width="585" height="785" rx="22" fill="#f8fff9" stroke="#08733c" stroke-width="2.6"/>
  <rect x="785" y="70" width="325" height="42" rx="10" class="green-head shadow"/>
  <text class="section-title" x="947" y="98" text-anchor="middle">Drug representation</text>

  <rect x="690" y="135" width="240" height="150" rx="14" class="soft-green"/>
  <text class="label" x="810" y="166" text-anchor="middle">1D semantic tokens</text>
  <g transform="translate(738 198)">
    <rect x="0" y="0" width="16" height="52" rx="3" class="token-green"/>
    <rect x="35" y="0" width="16" height="52" rx="3" class="token-green"/>
    <rect x="70" y="0" width="16" height="52" rx="3" class="token-green"/>
    <rect x="105" y="0" width="16" height="52" rx="3" class="token-green"/>
    <circle cx="154" cy="25" r="3" fill="#2a362f"/>
    <circle cx="169" cy="25" r="3" fill="#2a362f"/>
    <circle cx="184" cy="25" r="3" fill="#2a362f"/>
  </g>

  <rect x="970" y="135" width="230" height="150" rx="14" class="soft-green"/>
  <text class="label" x="1085" y="166" text-anchor="middle">2D topology tokens</text>
  <g transform="translate(1015 198)">
    <rect x="0" y="0" width="16" height="52" rx="3" class="token-green"/>
    <rect x="35" y="0" width="16" height="52" rx="3" class="token-green"/>
    <rect x="70" y="0" width="16" height="52" rx="3" class="token-green"/>
    <rect x="105" y="0" width="16" height="52" rx="3" class="token-green"/>
    <circle cx="152" cy="25" r="3" fill="#2a362f"/>
    <circle cx="167" cy="25" r="3" fill="#2a362f"/>
    <circle cx="182" cy="25" r="3" fill="#2a362f"/>
  </g>

  <rect x="690" y="320" width="510" height="310" rx="16" class="soft-orange"/>
  <rect x="750" y="303" width="390" height="36" rx="9" class="orange-head"/>
  <text class="section-title" x="945" y="328" text-anchor="middle">Step A: protein-aware conformer selection</text>
  <text class="label" x="735" y="367">k conformers</text>
  <g transform="translate(727 392)">
    <rect x="0" y="0" width="108" height="72" rx="10" class="shape"/>
    <line class="bond-light" x1="17" y1="43" x2="38" y2="20"/>
    <line class="bond-light" x1="38" y1="20" x2="68" y2="36"/>
    <line class="bond-light" x1="68" y1="36" x2="89" y2="18"/>
    <circle class="atom-c" cx="17" cy="43" r="6"/>
    <circle class="atom-n" cx="38" cy="20" r="6"/>
    <circle class="atom-c" cx="68" cy="36" r="6"/>
    <circle class="atom-o" cx="89" cy="18" r="6"/>
    <rect x="0" y="90" width="108" height="72" rx="10" class="shape"/>
    <line class="bond-light" x1="23" y1="24" x2="47" y2="46"/>
    <line class="bond-light" x1="47" y1="46" x2="76" y2="31"/>
    <line class="bond-light" x1="76" y1="31" x2="94" y2="53"/>
    <circle class="atom-c" cx="23" cy="24" r="6"/>
    <circle class="atom-n" cx="47" cy="46" r="6"/>
    <circle class="atom-c" cx="76" cy="31" r="6"/>
    <circle class="atom-o" cx="94" cy="53" r="6"/>
    <text class="small" x="54" y="195" text-anchor="middle">...</text>
  </g>
  <path class="arrow" d="M848 474 L907 474"/>
  <rect x="918" y="404" width="104" height="140" rx="12" class="shape"/>
  <text class="label" x="970" y="444" text-anchor="middle">shared</text>
  <text class="label" x="970" y="471" text-anchor="middle">EGNN</text>
  <text class="tiny" x="970" y="506" text-anchor="middle">with xyz coords</text>
  <path class="arrow" d="M1032 474 L1088 474"/>
  <rect x="1097" y="384" width="76" height="182" rx="12" class="shape"/>
  <text class="small" x="1135" y="415" text-anchor="middle">h1</text>
  <rect x="1118" y="431" width="34" height="18" rx="3" class="token-orange"/>
  <text class="small" x="1135" y="470" text-anchor="middle">h2</text>
  <rect x="1118" y="486" width="34" height="18" rx="3" class="token-orange"/>
  <text class="small" x="1135" y="528" text-anchor="middle">hK</text>
  <text class="tiny" x="1135" y="552" text-anchor="middle">summaries</text>

  <rect x="740" y="570" width="190" height="40" rx="8" class="shape"/>
  <text class="small" x="835" y="595" text-anchor="middle">u_k energy embedding</text>
  <rect x="948" y="570" width="222" height="40" rx="8" class="shape"/>
  <text class="small" x="1059" y="595" text-anchor="middle">alpha_k = softmax MLP([h_k, P0, u_k])</text>
  <path class="arrow-soft" d="M835 570 C850 535, 880 515, 918 505"/>
  <path class="arrow-soft" d="M1135 566 L1135 610 L1060 610 L1060 606"/>

  <rect x="690" y="675" width="510" height="150" rx="16" class="soft-green"/>
  <text class="label" x="945" y="707" text-anchor="middle">Simple 1D/2D/3D drug fusion</text>
  <g transform="translate(735 735)">
    <rect x="0" y="0" width="14" height="44" rx="3" class="token-green"/>
    <rect x="28" y="0" width="14" height="44" rx="3" class="token-green"/>
    <rect x="56" y="0" width="14" height="44" rx="3" class="token-green"/>
    <text class="small" x="106" y="28">1D</text>
    <rect x="166" y="0" width="14" height="44" rx="3" class="token-green"/>
    <rect x="194" y="0" width="14" height="44" rx="3" class="token-green"/>
    <rect x="222" y="0" width="14" height="44" rx="3" class="token-green"/>
    <text class="small" x="272" y="28">2D</text>
    <rect x="330" y="0" width="14" height="44" rx="3" class="token-orange"/>
    <rect x="358" y="0" width="14" height="44" rx="3" class="token-orange"/>
    <rect x="386" y="0" width="14" height="44" rx="3" class="token-orange"/>
    <text class="small" x="435" y="28">3D</text>
  </g>
  <path class="arrow" d="M945 630 L945 675"/>
  <rect x="782" y="790" width="326" height="54" rx="12" class="shape"/>
  <text class="label" x="945" y="824" text-anchor="middle">concat + light gate -> drug tokens D, context d_g</text>

  <!-- Protein representation -->
  <rect x="34" y="902" width="1206" height="245" rx="22" fill="url(#panelBlue)" stroke="#195ec8" stroke-width="2.6"/>
  <rect x="455" y="889" width="365" height="42" rx="10" class="blue-head shadow"/>
  <text class="section-title" x="638" y="917" text-anchor="middle">Protein representation and ligand-conditioned refinement</text>
  <rect x="75" y="955" width="185" height="135" rx="13" class="soft-blue"/>
  <text class="label" x="167" y="987" text-anchor="middle">protein sequence</text>
  <text class="code" x="100" y="1020">MAVSEQ...</text>
  <text class="code" x="100" y="1045">LSKNYH...</text>
  <text class="code" x="100" y="1070">LKKLV...</text>
  <path class="arrow" d="M272 1023 L330 1023"/>
  <rect x="342" y="955" width="128" height="135" rx="13" class="soft-blue"/>
  <text class="label" x="406" y="998" text-anchor="middle">ProtBERT</text>
  <g transform="translate(378 1025)">
    <circle class="atom-n" cx="0" cy="20" r="9"/>
    <circle class="atom-n" cx="35" cy="5" r="9"/>
    <circle class="atom-n" cx="70" cy="20" r="9"/>
    <line class="bond-light" x1="9" y1="18" x2="26" y2="9"/>
    <line class="bond-light" x1="44" y1="8" x2="61" y2="17"/>
  </g>
  <path class="arrow" d="M482 1023 L545 1023"/>
  <rect x="558" y="955" width="190" height="135" rx="13" class="soft-blue"/>
  <text class="label" x="653" y="990" text-anchor="middle">protein seed P0</text>
  <g transform="translate(594 1022)">
    <rect x="0" y="0" width="18" height="48" rx="3" class="token-blue"/>
    <rect x="39" y="0" width="18" height="48" rx="3" class="token-blue"/>
    <rect x="78" y="0" width="18" height="48" rx="3" class="token-blue"/>
    <circle cx="135" cy="24" r="3" fill="#2a362f"/>
    <circle cx="150" cy="24" r="3" fill="#2a362f"/>
  </g>
  <rect x="830" y="945" width="188" height="150" rx="13" class="soft-blue"/>
  <text class="label" x="924" y="978" text-anchor="middle">Step B: FiLM</text>
  <text class="small" x="924" y="1004" text-anchor="middle">gamma, beta from d_g</text>
  <line x1="872" y1="1042" x2="970" y2="1042" stroke="#195ec8" stroke-width="4" stroke-linecap="round"/>
  <circle cx="922" cy="1042" r="11" fill="#3f73db" stroke="#174fba" stroke-width="2"/>
  <path class="arrow" d="M760 1023 L818 1023"/>
  <path class="arrow" d="M1030 1023 L1088 1023"/>
  <rect x="1100" y="945" width="110" height="150" rx="13" class="soft-blue"/>
  <text class="label" x="1155" y="984" text-anchor="middle">ACmix</text>
  <text class="label" x="1155" y="1010" text-anchor="middle">x3</text>
  <g transform="translate(1128 1031)">
    <circle cx="0" cy="0" r="7" fill="#d7e2ff" stroke="#195ec8" stroke-width="1.5"/>
    <circle cx="30" cy="0" r="7" fill="#d7e2ff" stroke="#195ec8" stroke-width="1.5"/>
    <circle cx="60" cy="0" r="7" fill="#d7e2ff" stroke="#195ec8" stroke-width="1.5"/>
    <line class="bond-light" x1="7" y1="0" x2="23" y2="0"/>
    <line class="bond-light" x1="37" y1="0" x2="53" y2="0"/>
    <circle cx="15" cy="35" r="7" fill="#d7e2ff" stroke="#195ec8" stroke-width="1.5"/>
    <circle cx="45" cy="35" r="7" fill="#d7e2ff" stroke="#195ec8" stroke-width="1.5"/>
    <line class="bond-light" x1="22" y1="35" x2="38" y2="35"/>
  </g>

  <!-- Modulation arrows -->
  <path class="arrow-mod" d="M653 955 C675 780, 760 664, 948 598"/>
  <rect x="610" y="840" width="300" height="34" rx="8" fill="#fff8e6" stroke="#d28400" stroke-width="1.8"/>
  <text class="small" x="760" y="862" text-anchor="middle">P0 first enters conformer weighting</text>
  <path class="arrow-film" d="M945 844 C946 902, 914 914, 924 945"/>
  <rect x="962" y="878" width="292" height="34" rx="8" fill="#eefaf3" stroke="#0a7a4b" stroke-width="1.8"/>
  <text class="small" x="1108" y="900" text-anchor="middle">fused drug context FiLM-modulates protein</text>

  <!-- Main arrows from preprocessing to drug branch -->
  <path class="arrow" d="M587 234 L690 210"/>
  <path class="arrow" d="M587 432 L970 210"/>
  <path class="arrow" d="M587 692 C626 690, 646 543, 690 474"/>

  <!-- Final interaction module -->
  <rect x="1300" y="82" width="520" height="785" rx="22" fill="#fff8f6" stroke="#d93616" stroke-width="2.6"/>
  <rect x="1385" y="70" width="350" height="42" rx="10" class="red-head shadow"/>
  <text class="section-title" x="1560" y="98" text-anchor="middle">Final interaction module</text>
  <rect x="1338" y="610" width="170" height="104" rx="13" class="soft-green"/>
  <text class="label" x="1423" y="642" text-anchor="middle">drug tokens D</text>
  <g transform="translate(1375 663)">
    <rect x="0" y="0" width="15" height="38" rx="3" class="token-green"/>
    <rect x="34" y="0" width="15" height="38" rx="3" class="token-green"/>
    <rect x="68" y="0" width="15" height="38" rx="3" class="token-orange"/>
  </g>
  <rect x="1338" y="735" width="170" height="104" rx="13" class="soft-blue"/>
  <text class="label" x="1423" y="767" text-anchor="middle">protein tokens P</text>
  <g transform="translate(1375 788)">
    <rect x="0" y="0" width="15" height="38" rx="3" class="token-blue"/>
    <rect x="34" y="0" width="15" height="38" rx="3" class="token-blue"/>
    <rect x="68" y="0" width="15" height="38" rx="3" class="token-blue"/>
  </g>
  <path class="arrow" d="M1108 817 C1195 817, 1250 662, 1338 662"/>
  <path class="arrow" d="M1210 1023 C1265 1023, 1278 787, 1338 787"/>

  <rect x="1555" y="150" width="220" height="235" rx="16" class="soft-red"/>
  <text class="label" x="1665" y="184" text-anchor="middle">Protein-Mamba</text>
  <text class="small" x="1665" y="209" text-anchor="middle">refines protein tokens</text>
  <g transform="translate(1592 246)">
    <rect x="0" y="0" width="24" height="32" rx="5" class="token-red"/>
    <rect x="42" y="0" width="24" height="32" rx="5" class="token-red"/>
    <rect x="84" y="0" width="24" height="32" rx="5" class="token-red"/>
    <rect x="126" y="0" width="24" height="32" rx="5" class="token-red"/>
    <path d="M26 16 L40 16" stroke="#ca3729" stroke-width="3" marker-end="url(#arrowSoft)"/>
    <path d="M68 16 L82 16" stroke="#ca3729" stroke-width="3" marker-end="url(#arrowSoft)"/>
    <path d="M110 16 L124 16" stroke="#ca3729" stroke-width="3" marker-end="url(#arrowSoft)"/>
    <path d="M40 50 L26 50" stroke="#ca3729" stroke-width="3" marker-end="url(#arrowSoft)"/>
    <path d="M82 50 L68 50" stroke="#ca3729" stroke-width="3" marker-end="url(#arrowSoft)"/>
    <path d="M124 50 L110 50" stroke="#ca3729" stroke-width="3" marker-end="url(#arrowSoft)"/>
  </g>
  <path class="arrow" d="M1508 787 C1542 787, 1512 282, 1555 282"/>
  <rect x="1535" y="465" width="260" height="235" rx="16" class="soft-purple"/>
  <text class="label" x="1665" y="500" text-anchor="middle">BiIntention fusion</text>
  <text class="small" x="1665" y="525" text-anchor="middle">compact cross-modal matching</text>
  <g transform="translate(1585 555)">
    <rect x="0" y="0" width="150" height="96" fill="#ffffff" stroke="#7654c9" stroke-width="2"/>
    <g opacity="0.85">
      <rect x="0" y="0" width="25" height="16" fill="#e7ddff"/>
      <rect x="25" y="0" width="25" height="16" fill="#9b80de"/>
      <rect x="50" y="0" width="25" height="16" fill="#c4b3ef"/>
      <rect x="75" y="0" width="25" height="16" fill="#7254c8"/>
      <rect x="100" y="0" width="25" height="16" fill="#e7ddff"/>
      <rect x="125" y="0" width="25" height="16" fill="#b49ce9"/>
      <rect x="0" y="16" width="25" height="16" fill="#8b6ed8"/>
      <rect x="25" y="16" width="25" height="16" fill="#dfd5fb"/>
      <rect x="50" y="16" width="25" height="16" fill="#7654c9"/>
      <rect x="75" y="16" width="25" height="16" fill="#b49ce9"/>
      <rect x="100" y="16" width="25" height="16" fill="#d0c1f3"/>
      <rect x="125" y="16" width="25" height="16" fill="#e7ddff"/>
      <rect x="0" y="32" width="25" height="16" fill="#d0c1f3"/>
      <rect x="25" y="32" width="25" height="16" fill="#7254c8"/>
      <rect x="50" y="32" width="25" height="16" fill="#e7ddff"/>
      <rect x="75" y="32" width="25" height="16" fill="#8b6ed8"/>
      <rect x="100" y="32" width="25" height="16" fill="#b49ce9"/>
      <rect x="125" y="32" width="25" height="16" fill="#dfd5fb"/>
      <rect x="0" y="48" width="25" height="16" fill="#b49ce9"/>
      <rect x="25" y="48" width="25" height="16" fill="#d0c1f3"/>
      <rect x="50" y="48" width="25" height="16" fill="#8b6ed8"/>
      <rect x="75" y="48" width="25" height="16" fill="#e7ddff"/>
      <rect x="100" y="48" width="25" height="16" fill="#7254c8"/>
      <rect x="125" y="48" width="25" height="16" fill="#c4b3ef"/>
      <rect x="0" y="64" width="25" height="16" fill="#e7ddff"/>
      <rect x="25" y="64" width="25" height="16" fill="#b49ce9"/>
      <rect x="50" y="64" width="25" height="16" fill="#d0c1f3"/>
      <rect x="75" y="64" width="25" height="16" fill="#7254c8"/>
      <rect x="100" y="64" width="25" height="16" fill="#c4b3ef"/>
      <rect x="125" y="64" width="25" height="16" fill="#8b6ed8"/>
      <rect x="0" y="80" width="25" height="16" fill="#7654c9"/>
      <rect x="25" y="80" width="25" height="16" fill="#e7ddff"/>
      <rect x="50" y="80" width="25" height="16" fill="#9b80de"/>
      <rect x="75" y="80" width="25" height="16" fill="#dfd5fb"/>
      <rect x="100" y="80" width="25" height="16" fill="#8b6ed8"/>
      <rect x="125" y="80" width="25" height="16" fill="#d0c1f3"/>
    </g>
  </g>
  <path class="arrow" d="M1508 662 L1535 582"/>
  <path class="arrow" d="M1665 385 L1665 465"/>
  <rect x="1565" y="750" width="200" height="72" rx="14" class="shape"/>
  <text class="label" x="1665" y="793" text-anchor="middle">pair representation h</text>
  <path class="arrow" d="M1665 700 L1665 750"/>

  <!-- Prediction head -->
  <rect x="1865" y="510" width="195" height="470" rx="20" class="soft-gray"/>
  <text class="label" x="1962" y="548" text-anchor="middle">Prediction head</text>
  <rect x="1905" y="585" width="115" height="90" rx="12" class="shape"/>
  <g transform="translate(1924 607)">
    <circle cx="0" cy="15" r="8" fill="#d7ded9" stroke="#5a6560"/>
    <circle cx="0" cy="50" r="8" fill="#d7ded9" stroke="#5a6560"/>
    <circle cx="42" cy="0" r="8" fill="#d7ded9" stroke="#5a6560"/>
    <circle cx="42" cy="32" r="8" fill="#d7ded9" stroke="#5a6560"/>
    <circle cx="42" cy="64" r="8" fill="#d7ded9" stroke="#5a6560"/>
    <circle cx="84" cy="15" r="8" fill="#d7ded9" stroke="#5a6560"/>
    <circle cx="84" cy="50" r="8" fill="#d7ded9" stroke="#5a6560"/>
    <line class="bond-light" x1="8" y1="15" x2="34" y2="0"/>
    <line class="bond-light" x1="8" y1="15" x2="34" y2="32"/>
    <line class="bond-light" x1="8" y1="50" x2="34" y2="32"/>
    <line class="bond-light" x1="8" y1="50" x2="34" y2="64"/>
    <line class="bond-light" x1="50" y1="0" x2="76" y2="15"/>
    <line class="bond-light" x1="50" y1="32" x2="76" y2="15"/>
    <line class="bond-light" x1="50" y1="32" x2="76" y2="50"/>
    <line class="bond-light" x1="50" y1="64" x2="76" y2="50"/>
  </g>
  <text class="small" x="1962" y="701" text-anchor="middle">MLP</text>
  <path class="arrow" d="M1765 786 C1815 786, 1835 635, 1905 635"/>
  <path class="arrow" d="M1962 725 L1962 771"/>
  <rect x="1905" y="777" width="115" height="74" rx="12" class="shape"/>
  <path d="M1930 823 C1945 823, 1948 794, 1960 794 C1972 794, 1976 823, 1996 823" fill="none" stroke="#1e2823" stroke-width="3"/>
  <text class="small" x="1962" y="876" text-anchor="middle">sigmoid</text>
  <path class="arrow" d="M1962 851 L1962 895"/>
  <text class="label" x="1962" y="920" text-anchor="middle">interaction</text>
  <text class="label" x="1962" y="947" text-anchor="middle">probability y_hat</text>

  <!-- Clean overlay for the final interaction module -->
  <rect x="1310" y="120" width="530" height="730" rx="14" fill="#fff8f6"/>
  <rect x="1338" y="610" width="170" height="104" rx="13" class="soft-green"/>
  <text class="label" x="1423" y="642" text-anchor="middle">drug tokens D</text>
  <g transform="translate(1375 663)">
    <rect x="0" y="0" width="15" height="38" rx="3" class="token-green"/>
    <rect x="34" y="0" width="15" height="38" rx="3" class="token-green"/>
    <rect x="68" y="0" width="15" height="38" rx="3" class="token-orange"/>
  </g>
  <rect x="1338" y="735" width="170" height="104" rx="13" class="soft-blue"/>
  <text class="label" x="1423" y="767" text-anchor="middle">protein tokens P</text>
  <g transform="translate(1375 788)">
    <rect x="0" y="0" width="15" height="38" rx="3" class="token-blue"/>
    <rect x="34" y="0" width="15" height="38" rx="3" class="token-blue"/>
    <rect x="68" y="0" width="15" height="38" rx="3" class="token-blue"/>
  </g>
  <path class="arrow" d="M1108 817 C1195 817, 1250 662, 1338 662"/>
  <path class="arrow" d="M1210 1023 C1265 1023, 1278 787, 1338 787"/>

  <rect x="1540" y="575" width="260" height="245" rx="18" class="soft-red"/>
  <text class="label" x="1670" y="611" text-anchor="middle">Protein-Mamba</text>
  <text class="label" x="1670" y="638" text-anchor="middle">BiIntention fusion</text>
  <text class="small" x="1670" y="664" text-anchor="middle">refine P, then match D and P</text>
  <g transform="translate(1588 690)">
    <rect x="0" y="0" width="24" height="34" rx="5" class="token-red"/>
    <rect x="42" y="0" width="24" height="34" rx="5" class="token-red"/>
    <rect x="84" y="0" width="24" height="34" rx="5" class="token-red"/>
    <rect x="126" y="0" width="24" height="34" rx="5" class="token-red"/>
    <path d="M27 17 L40 17" stroke="#ca3729" stroke-width="2.4" marker-end="url(#arrowSoft)"/>
    <path d="M69 17 L82 17" stroke="#ca3729" stroke-width="2.4" marker-end="url(#arrowSoft)"/>
    <path d="M111 17 L124 17" stroke="#ca3729" stroke-width="2.4" marker-end="url(#arrowSoft)"/>
  </g>
  <g transform="translate(1588 745)">
    <rect x="0" y="0" width="150" height="52" fill="#ffffff" stroke="#7654c9" stroke-width="1.8"/>
    <rect x="0" y="0" width="25" height="13" fill="#e7ddff"/>
    <rect x="25" y="0" width="25" height="13" fill="#9b80de"/>
    <rect x="50" y="0" width="25" height="13" fill="#c4b3ef"/>
    <rect x="75" y="0" width="25" height="13" fill="#7254c8"/>
    <rect x="100" y="0" width="25" height="13" fill="#e7ddff"/>
    <rect x="125" y="0" width="25" height="13" fill="#b49ce9"/>
    <rect x="0" y="13" width="25" height="13" fill="#8b6ed8"/>
    <rect x="25" y="13" width="25" height="13" fill="#dfd5fb"/>
    <rect x="50" y="13" width="25" height="13" fill="#7654c9"/>
    <rect x="75" y="13" width="25" height="13" fill="#b49ce9"/>
    <rect x="100" y="13" width="25" height="13" fill="#d0c1f3"/>
    <rect x="125" y="13" width="25" height="13" fill="#e7ddff"/>
    <rect x="0" y="26" width="25" height="13" fill="#d0c1f3"/>
    <rect x="25" y="26" width="25" height="13" fill="#7254c8"/>
    <rect x="50" y="26" width="25" height="13" fill="#e7ddff"/>
    <rect x="75" y="26" width="25" height="13" fill="#8b6ed8"/>
    <rect x="100" y="26" width="25" height="13" fill="#b49ce9"/>
    <rect x="125" y="26" width="25" height="13" fill="#dfd5fb"/>
    <rect x="0" y="39" width="25" height="13" fill="#b49ce9"/>
    <rect x="25" y="39" width="25" height="13" fill="#d0c1f3"/>
    <rect x="50" y="39" width="25" height="13" fill="#8b6ed8"/>
    <rect x="75" y="39" width="25" height="13" fill="#e7ddff"/>
    <rect x="100" y="39" width="25" height="13" fill="#7254c8"/>
    <rect x="125" y="39" width="25" height="13" fill="#c4b3ef"/>
  </g>
  <path class="arrow" d="M1508 662 L1540 662"/>
  <path class="arrow" d="M1508 787 L1540 787"/>
  <rect x="1562" y="840" width="215" height="60" rx="13" class="shape"/>
  <text class="label" x="1670" y="877" text-anchor="middle">pair representation h</text>
  <path class="arrow" d="M1670 820 L1670 840"/>
  <path class="arrow" d="M1777 870 C1830 870, 1835 635, 1905 635"/>

  <!-- Section sequence labels -->
  <rect x="1248" y="900" width="835" height="92" rx="18" fill="#ffffff" stroke="#d7ded9" stroke-width="2"/>
  <text class="label" x="1275" y="933">Ordering made explicit</text>
  <text class="small" x="1275" y="962">1. ProtBERT creates P0 before conformer selection; P0 + energy scores k conformers.</text>
  <text class="small" x="1275" y="987">2. Weighted conformers are fused with 1D/2D drug tokens; the resulting d_g FiLM-modulates protein refinement.</text>
</svg>
