<?xml version="1.0" encoding="utf-8" standalone="no"?>
<!DOCTYPE svg PUBLIC "-//W3C//DTD SVG 1.1//EN"
  "http://www.w3.org/Graphics/SVG/1.1/DTD/svg11.dtd">
<svg xmlns:xlink="http://www.w3.org/1999/xlink" width="843.59952pt" height="238.79952pt" viewBox="0 0 843.59952 238.79952" xmlns="http://www.w3.org/2000/svg" version="1.1">
 <metadata>
  <rdf:RDF xmlns:dc="http://purl.org/dc/elements/1.1/" xmlns:cc="http://creativecommons.org/ns#" xmlns:rdf="http://www.w3.org/1999/02/22-rdf-syntax-ns#">
   <cc:Work>
    <dc:type rdf:resource="http://purl.org/dc/dcmitype/StillImage"/>
    <dc:date>2026-06-29T19:31:22.188467</dc:date>
    <dc:format>image/svg+xml</dc:format>
    <dc:creator>
     <cc:Agent>
      <dc:title>Matplotlib v3.9.4, https://matplotlib.org/</dc:title>
     </cc:Agent>
    </dc:creator>
   </cc:Work>
  </rdf:RDF>
 </metadata>
 <defs>
  <style type="text/css">*{stroke-linejoin: round; stroke-linecap: butt}</style>
 </defs>
 <g id="figure_1">
  <g id="patch_1">
   <path d="M 0 238.79952 
L 843.59952 238.79952 
L 843.59952 -0 
L 0 -0 
z
" style="fill: #ffffff"/>
  </g>
  <g id="axes_1">
   <g id="patch_2">
    <path d="M 40.600625 204.146707 
L 232.424989 204.146707 
L 232.424989 48.718652 
L 40.600625 48.718652 
z
" style="fill: #ffffff"/>
   </g>
   <g id="matplotlib.axis_1">
    <g id="xtick_1">
     <g id="line2d_1">
      <defs>
       <path id="m91d731154d" d="M 0 0 
L 0 3.5 
" style="stroke: #1f2937; stroke-width: 0.8"/>
      </defs>
      <g>
       <use xlink:href="#m91d731154d" x="49.319914" y="204.146707" style="fill: #1f2937; stroke: #1f2937; stroke-width: 0.8"/>
      </g>
     </g>
     <g id="text_1">
      <text style="fill: #1f2937; font: 8px 'DejaVu Sans'; text-anchor: middle" x="49.319914" y="217.225458" transform="rotate(-0 49.319914 217.225458)">1</text>
     </g>
    </g>
    <g id="xtick_2">
     <g id="line2d_2">
      <g>
       <use xlink:href="#m91d731154d" x="74.232169" y="204.146707" style="fill: #1f2937; stroke: #1f2937; stroke-width: 0.8"/>
      </g>
     </g>
     <g id="text_2">
      <text style="fill: #1f2937; font: 8px 'DejaVu Sans'; text-anchor: middle" x="74.232169" y="217.225458" transform="rotate(-0 74.232169 217.225458)">2</text>
     </g>
    </g>
    <g id="xtick_3">
     <g id="line2d_3">
      <g>
       <use xlink:href="#m91d731154d" x="99.144424" y="204.146707" style="fill: #1f2937; stroke: #1f2937; stroke-width: 0.8"/>
      </g>
     </g>
     <g id="text_3">
      <text style="fill: #1f2937; font: 8px 'DejaVu Sans'; text-anchor: middle" x="99.144424" y="217.225458" transform="rotate(-0 99.144424 217.225458)">3</text>
     </g>
    </g>
    <g id="xtick_4">
     <g id="line2d_4">
      <g>
       <use xlink:href="#m91d731154d" x="124.056679" y="204.146707" style="fill: #1f2937; stroke: #1f2937; stroke-width: 0.8"/>
      </g>
     </g>
     <g id="text_4">
      <text style="fill: #1f2937; font: 8px 'DejaVu Sans'; text-anchor: middle" x="124.056679" y="217.225458" transform="rotate(-0 124.056679 217.225458)">4</text>
     </g>
    </g>
    <g id="xtick_5">
     <g id="line2d_5">
      <g>
       <use xlink:href="#m91d731154d" x="148.968934" y="204.146707" style="fill: #1f2937; stroke: #1f2937; stroke-width: 0.8"/>
      </g>
     </g>
     <g id="text_5">
      <text style="fill: #1f2937; font: 8px 'DejaVu Sans'; text-anchor: middle" x="148.968934" y="217.225458" transform="rotate(-0 148.968934 217.225458)">5</text>
     </g>
    </g>
    <g id="xtick_6">
     <g id="line2d_6">
      <g>
       <use xlink:href="#m91d731154d" x="173.881189" y="204.146707" style="fill: #1f2937; stroke: #1f2937; stroke-width: 0.8"/>
      </g>
     </g>
     <g id="text_6">
      <text style="fill: #1f2937; font: 8px 'DejaVu Sans'; text-anchor: middle" x="173.881189" y="217.225458" transform="rotate(-0 173.881189 217.225458)">6</text>
     </g>
    </g>
    <g id="xtick_7">
     <g id="line2d_7">
      <g>
       <use xlink:href="#m91d731154d" x="198.793444" y="204.146707" style="fill: #1f2937; stroke: #1f2937; stroke-width: 0.8"/>
      </g>
     </g>
     <g id="text_7">
      <text style="fill: #1f2937; font: 8px 'DejaVu Sans'; text-anchor: middle" x="198.793444" y="217.225458" transform="rotate(-0 198.793444 217.225458)">7</text>
     </g>
    </g>
    <g id="xtick_8">
     <g id="line2d_8">
      <g>
       <use xlink:href="#m91d731154d" x="223.705699" y="204.146707" style="fill: #1f2937; stroke: #1f2937; stroke-width: 0.8"/>
      </g>
     </g>
     <g id="text_8">
      <text style="fill: #1f2937; font: 8px 'DejaVu Sans'; text-anchor: middle" x="223.705699" y="217.225458" transform="rotate(-0 223.705699 217.225458)">8</text>
     </g>
    </g>
    <g id="text_9">
     <text style="fill: #1f2937; font: 9px 'DejaVu Sans'; text-anchor: middle" x="136.512807" y="229.727801" transform="rotate(-0 136.512807 229.727801)">Rank (within sample, descending)</text>
    </g>
   </g>
   <g id="matplotlib.axis_2">
    <g id="ytick_1">
     <g id="line2d_9">
      <path d="M 40.600625 197.081796 
L 232.424989 197.081796 
" clip-path="url(#p21f2b2b191)" style="fill: none; stroke: #e5e7eb; stroke-opacity: 0.9; stroke-width: 0.75; stroke-linecap: square"/>
     </g>
     <g id="line2d_10">
      <defs>
       <path id="mae5105c33d" d="M 0 0 
L -3.5 0 
" style="stroke: #1f2937; stroke-width: 0.8"/>
      </defs>
      <g>
       <use xlink:href="#mae5105c33d" x="40.600625" y="197.081796" style="fill: #1f2937; stroke: #1f2937; stroke-width: 0.8"/>
      </g>
     </g>
     <g id="text_10">
      <text style="fill: #1f2937; font: 8px 'DejaVu Sans'; text-anchor: end" x="33.600625" y="200.121171" transform="rotate(-0 33.600625 200.121171)">0.0</text>
     </g>
    </g>
    <g id="ytick_2">
     <g id="line2d_11">
      <path d="M 40.600625 168.822149 
L 232.424989 168.822149 
" clip-path="url(#p21f2b2b191)" style="fill: none; stroke: #e5e7eb; stroke-opacity: 0.9; stroke-width: 0.75; stroke-linecap: square"/>
     </g>
     <g id="line2d_12">
      <g>
       <use xlink:href="#mae5105c33d" x="40.600625" y="168.822149" style="fill: #1f2937; stroke: #1f2937; stroke-width: 0.8"/>
      </g>
     </g>
     <g id="text_11">
      <text style="fill: #1f2937; font: 8px 'DejaVu Sans'; text-anchor: end" x="33.600625" y="171.861524" transform="rotate(-0 33.600625 171.861524)">0.2</text>
     </g>
    </g>
    <g id="ytick_3">
     <g id="line2d_13">
      <path d="M 40.600625 140.562503 
L 232.424989 140.562503 
" clip-path="url(#p21f2b2b191)" style="fill: none; stroke: #e5e7eb; stroke-opacity: 0.9; stroke-width: 0.75; stroke-linecap: square"/>
     </g>
     <g id="line2d_14">
      <g>
       <use xlink:href="#mae5105c33d" x="40.600625" y="140.562503" style="fill: #1f2937; stroke: #1f2937; stroke-width: 0.8"/>
      </g>
     </g>
     <g id="text_12">
      <text style="fill: #1f2937; font: 8px 'DejaVu Sans'; text-anchor: end" x="33.600625" y="143.601878" transform="rotate(-0 33.600625 143.601878)">0.4</text>
     </g>
    </g>
    <g id="ytick_4">
     <g id="line2d_15">
      <path d="M 40.600625 112.302856 
L 232.424989 112.302856 
" clip-path="url(#p21f2b2b191)" style="fill: none; stroke: #e5e7eb; stroke-opacity: 0.9; stroke-width: 0.75; stroke-linecap: square"/>
     </g>
     <g id="line2d_16">
      <g>
       <use xlink:href="#mae5105c33d" x="40.600625" y="112.302856" style="fill: #1f2937; stroke: #1f2937; stroke-width: 0.8"/>
      </g>
     </g>
     <g id="text_13">
      <text style="fill: #1f2937; font: 8px 'DejaVu Sans'; text-anchor: end" x="33.600625" y="115.342231" transform="rotate(-0 33.600625 115.342231)">0.6</text>
     </g>
    </g>
    <g id="ytick_5">
     <g id="line2d_17">
      <path d="M 40.600625 84.04321 
L 232.424989 84.04321 
" clip-path="url(#p21f2b2b191)" style="fill: none; stroke: #e5e7eb; stroke-opacity: 0.9; stroke-width: 0.75; stroke-linecap: square"/>
     </g>
     <g id="line2d_18">
      <g>
       <use xlink:href="#mae5105c33d" x="40.600625" y="84.04321" style="fill: #1f2937; stroke: #1f2937; stroke-width: 0.8"/>
      </g>
     </g>
     <g id="text_14">
      <text style="fill: #1f2937; font: 8px 'DejaVu Sans'; text-anchor: end" x="33.600625" y="87.082585" transform="rotate(-0 33.600625 87.082585)">0.8</text>
     </g>
    </g>
    <g id="ytick_6">
     <g id="line2d_19">
      <path d="M 40.600625 55.783563 
L 232.424989 55.783563 
" clip-path="url(#p21f2b2b191)" style="fill: none; stroke: #e5e7eb; stroke-opacity: 0.9; stroke-width: 0.75; stroke-linecap: square"/>
     </g>
     <g id="line2d_20">
      <g>
       <use xlink:href="#mae5105c33d" x="40.600625" y="55.783563" style="fill: #1f2937; stroke: #1f2937; stroke-width: 0.8"/>
      </g>
     </g>
     <g id="text_15">
      <text style="fill: #1f2937; font: 8px 'DejaVu Sans'; text-anchor: end" x="33.600625" y="58.822938" transform="rotate(-0 33.600625 58.822938)">1.0</text>
     </g>
    </g>
    <g id="text_16">
     <text style="fill: #1f2937; font: 10px 'DejaVu Sans'; text-anchor: middle" x="14.798438" y="126.43268" transform="rotate(-90 14.798438 126.43268)">Conformer selection weight</text>
    </g>
   </g>
   <g id="PolyCollection_1">
    <defs>
     <path id="m9ef0304193" d="M 49.319914 -183.015957 
L 49.319914 -59.380869 
L 74.232169 -41.717724 
L 99.144424 -41.717724 
L 124.056679 -41.717724 
L 148.968934 -41.717724 
L 173.881189 -41.717724 
L 198.793444 -41.717724 
L 223.705699 -41.717724 
L 223.705699 -59.379446 
L 223.705699 -59.379446 
L 198.793444 -61.90233 
L 173.881189 -65.266384 
L 148.968934 -69.97612 
L 124.056679 -77.040562 
L 99.144424 -88.814732 
L 74.232169 -112.364192 
L 49.319914 -183.015957 
z
"/>
    </defs>
    <g clip-path="url(#p21f2b2b191)">
     <use xlink:href="#m9ef0304193" x="0" y="238.79952" style="fill: #005f99; fill-opacity: 0.18"/>
    </g>
   </g>
   <g id="PolyCollection_2">
    <defs>
     <path id="m568ff168fd" d="M 49.319914 -77.043604 
L 49.319914 -59.381252 
L 74.232169 -59.380593 
L 99.144424 -59.380167 
L 124.056679 -59.379796 
L 148.968934 -41.717724 
L 173.881189 -41.717724 
L 198.793444 -41.717724 
L 223.705699 -41.717724 
L 223.705699 -59.379047 
L 223.705699 -59.379047 
L 198.793444 -59.379492 
L 173.881189 -59.380024 
L 148.968934 -61.902936 
L 124.056679 -65.267005 
L 99.144424 -65.268041 
L 74.232169 -69.977977 
L 49.319914 -77.043604 
z
"/>
    </defs>
    <g clip-path="url(#p21f2b2b191)">
     <use xlink:href="#m568ff168fd" x="0" y="238.79952" style="fill: #005f99; fill-opacity: 0.35"/>
    </g>
   </g>
   <g id="line2d_21">
    <path d="M 49.319914 176.894672 
L 74.232169 176.895819 
L 99.144424 179.418841 
L 124.056679 179.419323 
L 148.968934 179.419656 
L 173.881189 179.419945 
L 198.793444 179.420389 
L 223.705699 197.081796 
" clip-path="url(#p21f2b2b191)" style="fill: none; stroke: #005f99; stroke-width: 1.8; stroke-linecap: square"/>
    <defs>
     <path id="m5a4f69684f" d="M 0 2 
C 0.530406 2 1.03916 1.789267 1.414214 1.414214 
C 1.789267 1.03916 2 0.530406 2 0 
C 2 -0.530406 1.789267 -1.03916 1.414214 -1.414214 
C 1.03916 -1.789267 0.530406 -2 0 -2 
C -0.530406 -2 -1.03916 -1.789267 -1.414214 -1.414214 
C -1.789267 -1.03916 -2 -0.530406 -2 0 
C -2 0.530406 -1.789267 1.03916 -1.414214 1.414214 
C -1.03916 1.789267 -0.530406 2 0 2 
z
" style="stroke: #005f99"/>
    </defs>
    <g clip-path="url(#p21f2b2b191)">
     <use xlink:href="#m5a4f69684f" x="49.319914" y="176.894672" style="fill: #005f99; stroke: #005f99"/>
     <use xlink:href="#m5a4f69684f" x="74.232169" y="176.895819" style="fill: #005f99; stroke: #005f99"/>
     <use xlink:href="#m5a4f69684f" x="99.144424" y="179.418841" style="fill: #005f99; stroke: #005f99"/>
     <use xlink:href="#m5a4f69684f" x="124.056679" y="179.419323" style="fill: #005f99; stroke: #005f99"/>
     <use xlink:href="#m5a4f69684f" x="148.968934" y="179.419656" style="fill: #005f99; stroke: #005f99"/>
     <use xlink:href="#m5a4f69684f" x="173.881189" y="179.419945" style="fill: #005f99; stroke: #005f99"/>
     <use xlink:href="#m5a4f69684f" x="198.793444" y="179.420389" style="fill: #005f99; stroke: #005f99"/>
     <use xlink:href="#m5a4f69684f" x="223.705699" y="197.081796" style="fill: #005f99; stroke: #005f99"/>
    </g>
   </g>
   <g id="line2d_22">
    <path d="M 40.600625 179.419517 
L 232.424989 179.419517 
" clip-path="url(#p21f2b2b191)" style="fill: none; stroke-dasharray: 2.96,1.28; stroke-dashoffset: 0; stroke: #94a3b8; stroke-width: 0.8"/>
   </g>
   <g id="patch_3">
    <path d="M 40.600625 204.146707 
L 40.600625 48.718652 
" style="fill: none; stroke: #94a3b8; stroke-width: 0.8; stroke-linejoin: miter; stroke-linecap: square"/>
   </g>
   <g id="patch_4">
    <path d="M 40.600625 204.146707 
L 232.424989 204.146707 
" style="fill: none; stroke: #94a3b8; stroke-width: 0.8; stroke-linejoin: miter; stroke-linecap: square"/>
   </g>
   <g id="text_17">
    <g id="patch_5">
     <path d="M 168.992014 75.190805 
L 224.752014 75.190805 
Q 226.752014 75.190805 226.752014 73.190805 
L 226.752014 56.490055 
Q 226.752014 54.490055 224.752014 54.490055 
L 168.992014 54.490055 
Q 166.992014 54.490055 166.992014 56.490055 
L 166.992014 73.190805 
Q 166.992014 75.190805 168.992014 75.190805 
z
" style="fill: #ffffff; opacity: 0.85; stroke: #005f99; stroke-width: 0.6; stroke-linejoin: miter"/>
    </g>
    <text style="fill: #005f99; font: 8px 'DejaVu Sans'" transform="translate(174.059514 62.568805)">top-1=0.239</text>
    <text style="fill: #005f99; font: 8px 'DejaVu Sans'" transform="translate(168.992014 71.527055)">H/logK=0.937</text>
   </g>
   <g id="text_18">
    <text style="fill: #005f99; font: 10px 'DejaVu Sans'; text-anchor: middle" x="136.512807" y="42.718652" transform="rotate(-0 136.512807 42.718652)">TP  (n=2341)</text>
   </g>
  </g>
  <g id="axes_2">
   <g id="patch_6">
    <path d="M 241.925469 204.146707 
L 433.749833 204.146707 
L 433.749833 48.718652 
L 241.925469 48.718652 
z
" style="fill: #ffffff"/>
   </g>
   <g id="matplotlib.axis_3">
    <g id="xtick_9">
     <g id="line2d_23">
      <g>
       <use xlink:href="#m91d731154d" x="250.644758" y="204.146707" style="fill: #1f2937; stroke: #1f2937; stroke-width: 0.8"/>
      </g>
     </g>
     <g id="text_19">
      <text style="fill: #1f2937; font: 8px 'DejaVu Sans'; text-anchor: middle" x="250.644758" y="217.225458" transform="rotate(-0 250.644758 217.225458)">1</text>
     </g>
    </g>
    <g id="xtick_10">
     <g id="line2d_24">
      <g>
       <use xlink:href="#m91d731154d" x="275.557013" y="204.146707" style="fill: #1f2937; stroke: #1f2937; stroke-width: 0.8"/>
      </g>
     </g>
     <g id="text_20">
      <text style="fill: #1f2937; font: 8px 'DejaVu Sans'; text-anchor: middle" x="275.557013" y="217.225458" transform="rotate(-0 275.557013 217.225458)">2</text>
     </g>
    </g>
    <g id="xtick_11">
     <g id="line2d_25">
      <g>
       <use xlink:href="#m91d731154d" x="300.469268" y="204.146707" style="fill: #1f2937; stroke: #1f2937; stroke-width: 0.8"/>
      </g>
     </g>
     <g id="text_21">
      <text style="fill: #1f2937; font: 8px 'DejaVu Sans'; text-anchor: middle" x="300.469268" y="217.225458" transform="rotate(-0 300.469268 217.225458)">3</text>
     </g>
    </g>
    <g id="xtick_12">
     <g id="line2d_26">
      <g>
       <use xlink:href="#m91d731154d" x="325.381523" y="204.146707" style="fill: #1f2937; stroke: #1f2937; stroke-width: 0.8"/>
      </g>
     </g>
     <g id="text_22">
      <text style="fill: #1f2937; font: 8px 'DejaVu Sans'; text-anchor: middle" x="325.381523" y="217.225458" transform="rotate(-0 325.381523 217.225458)">4</text>
     </g>
    </g>
    <g id="xtick_13">
     <g id="line2d_27">
      <g>
       <use xlink:href="#m91d731154d" x="350.293778" y="204.146707" style="fill: #1f2937; stroke: #1f2937; stroke-width: 0.8"/>
      </g>
     </g>
     <g id="text_23">
      <text style="fill: #1f2937; font: 8px 'DejaVu Sans'; text-anchor: middle" x="350.293778" y="217.225458" transform="rotate(-0 350.293778 217.225458)">5</text>
     </g>
    </g>
    <g id="xtick_14">
     <g id="line2d_28">
      <g>
       <use xlink:href="#m91d731154d" x="375.206033" y="204.146707" style="fill: #1f2937; stroke: #1f2937; stroke-width: 0.8"/>
      </g>
     </g>
     <g id="text_24">
      <text style="fill: #1f2937; font: 8px 'DejaVu Sans'; text-anchor: middle" x="375.206033" y="217.225458" transform="rotate(-0 375.206033 217.225458)">6</text>
     </g>
    </g>
    <g id="xtick_15">
     <g id="line2d_29">
      <g>
       <use xlink:href="#m91d731154d" x="400.118288" y="204.146707" style="fill: #1f2937; stroke: #1f2937; stroke-width: 0.8"/>
      </g>
     </g>
     <g id="text_25">
      <text style="fill: #1f2937; font: 8px 'DejaVu Sans'; text-anchor: middle" x="400.118288" y="217.225458" transform="rotate(-0 400.118288 217.225458)">7</text>
     </g>
    </g>
    <g id="xtick_16">
     <g id="line2d_30">
      <g>
       <use xlink:href="#m91d731154d" x="425.030543" y="204.146707" style="fill: #1f2937; stroke: #1f2937; stroke-width: 0.8"/>
      </g>
     </g>
     <g id="text_26">
      <text style="fill: #1f2937; font: 8px 'DejaVu Sans'; text-anchor: middle" x="425.030543" y="217.225458" transform="rotate(-0 425.030543 217.225458)">8</text>
     </g>
    </g>
    <g id="text_27">
     <text style="fill: #1f2937; font: 9px 'DejaVu Sans'; text-anchor: middle" x="337.837651" y="229.727801" transform="rotate(-0 337.837651 229.727801)">Rank (within sample, descending)</text>
    </g>
   </g>
   <g id="matplotlib.axis_4">
    <g id="ytick_7">
     <g id="line2d_31">
      <path d="M 241.925469 197.081796 
L 433.749833 197.081796 
" clip-path="url(#pb5e0388bb2)" style="fill: none; stroke: #e5e7eb; stroke-opacity: 0.9; stroke-width: 0.75; stroke-linecap: square"/>
     </g>
     <g id="line2d_32">
      <g>
       <use xlink:href="#mae5105c33d" x="241.925469" y="197.081796" style="fill: #1f2937; stroke: #1f2937; stroke-width: 0.8"/>
      </g>
     </g>
    </g>
    <g id="ytick_8">
     <g id="line2d_33">
      <path d="M 241.925469 168.822149 
L 433.749833 168.822149 
" clip-path="url(#pb5e0388bb2)" style="fill: none; stroke: #e5e7eb; stroke-opacity: 0.9; stroke-width: 0.75; stroke-linecap: square"/>
     </g>
     <g id="line2d_34">
      <g>
       <use xlink:href="#mae5105c33d" x="241.925469" y="168.822149" style="fill: #1f2937; stroke: #1f2937; stroke-width: 0.8"/>
      </g>
     </g>
    </g>
    <g id="ytick_9">
     <g id="line2d_35">
      <path d="M 241.925469 140.562503 
L 433.749833 140.562503 
" clip-path="url(#pb5e0388bb2)" style="fill: none; stroke: #e5e7eb; stroke-opacity: 0.9; stroke-width: 0.75; stroke-linecap: square"/>
     </g>
     <g id="line2d_36">
      <g>
       <use xlink:href="#mae5105c33d" x="241.925469" y="140.562503" style="fill: #1f2937; stroke: #1f2937; stroke-width: 0.8"/>
      </g>
     </g>
    </g>
    <g id="ytick_10">
     <g id="line2d_37">
      <path d="M 241.925469 112.302856 
L 433.749833 112.302856 
" clip-path="url(#pb5e0388bb2)" style="fill: none; stroke: #e5e7eb; stroke-opacity: 0.9; stroke-width: 0.75; stroke-linecap: square"/>
     </g>
     <g id="line2d_38">
      <g>
       <use xlink:href="#mae5105c33d" x="241.925469" y="112.302856" style="fill: #1f2937; stroke: #1f2937; stroke-width: 0.8"/>
      </g>
     </g>
    </g>
    <g id="ytick_11">
     <g id="line2d_39">
      <path d="M 241.925469 84.04321 
L 433.749833 84.04321 
" clip-path="url(#pb5e0388bb2)" style="fill: none; stroke: #e5e7eb; stroke-opacity: 0.9; stroke-width: 0.75; stroke-linecap: square"/>
     </g>
     <g id="line2d_40">
      <g>
       <use xlink:href="#mae5105c33d" x="241.925469" y="84.04321" style="fill: #1f2937; stroke: #1f2937; stroke-width: 0.8"/>
      </g>
     </g>
    </g>
    <g id="ytick_12">
     <g id="line2d_41">
      <path d="M 241.925469 55.783563 
L 433.749833 55.783563 
" clip-path="url(#pb5e0388bb2)" style="fill: none; stroke: #e5e7eb; stroke-opacity: 0.9; stroke-width: 0.75; stroke-linecap: square"/>
     </g>
     <g id="line2d_42">
      <g>
       <use xlink:href="#mae5105c33d" x="241.925469" y="55.783563" style="fill: #1f2937; stroke: #1f2937; stroke-width: 0.8"/>
      </g>
     </g>
    </g>
   </g>
   <g id="PolyCollection_3">
    <defs>
     <path id="m3504c86916" d="M 250.644758 -183.015957 
L 250.644758 -59.380839 
L 275.557013 -41.717724 
L 300.469268 -41.717724 
L 325.381523 -41.717724 
L 350.293778 -41.717724 
L 375.206033 -41.717724 
L 400.118288 -41.717724 
L 425.030543 -41.717724 
L 425.030543 -59.37943 
L 425.030543 -59.37943 
L 400.118288 -61.902359 
L 375.206033 -65.266403 
L 350.293778 -69.976118 
L 325.381523 -77.040464 
L 300.469268 -88.814715 
L 275.557013 -112.364192 
L 250.644758 -183.015957 
z
"/>
    </defs>
    <g clip-path="url(#pb5e0388bb2)">
     <use xlink:href="#m3504c86916" x="0" y="238.79952" style="fill: #00876c; fill-opacity: 0.18"/>
    </g>
   </g>
   <g id="PolyCollection_4">
    <defs>
     <path id="mb20ee2f45d" d="M 250.644758 -77.043103 
L 250.644758 -59.381249 
L 275.557013 -59.380571 
L 300.469268 -59.380148 
L 325.381523 -59.379806 
L 350.293778 -41.717724 
L 375.206033 -41.717724 
L 400.118288 -41.717724 
L 425.030543 -41.717724 
L 425.030543 -59.379067 
L 425.030543 -59.379067 
L 400.118288 -59.379521 
L 375.206033 -59.380105 
L 350.293778 -61.902835 
L 325.381523 -65.266811 
L 300.469268 -65.267791 
L 275.557013 -69.977579 
L 250.644758 -77.043103 
z
"/>
    </defs>
    <g clip-path="url(#pb5e0388bb2)">
     <use xlink:href="#mb20ee2f45d" x="0" y="238.79952" style="fill: #00876c; fill-opacity: 0.35"/>
    </g>
   </g>
   <g id="line2d_43">
    <path d="M 250.644758 176.895011 
L 275.557013 176.896055 
L 300.469268 179.418941 
L 325.381523 179.419325 
L 350.293778 179.419654 
L 375.206033 179.419956 
L 400.118288 179.420301 
L 425.030543 197.081796 
" clip-path="url(#pb5e0388bb2)" style="fill: none; stroke: #00876c; stroke-width: 1.8; stroke-linecap: square"/>
    <defs>
     <path id="m72443412bc" d="M 0 2 
C 0.530406 2 1.03916 1.789267 1.414214 1.414214 
C 1.789267 1.03916 2 0.530406 2 0 
C 2 -0.530406 1.789267 -1.03916 1.414214 -1.414214 
C 1.03916 -1.789267 0.530406 -2 0 -2 
C -0.530406 -2 -1.03916 -1.789267 -1.414214 -1.414214 
C -1.789267 -1.03916 -2 -0.530406 -2 0 
C -2 0.530406 -1.789267 1.03916 -1.414214 1.414214 
C -1.03916 1.789267 -0.530406 2 0 2 
z
" style="stroke: #00876c"/>
    </defs>
    <g clip-path="url(#pb5e0388bb2)">
     <use xlink:href="#m72443412bc" x="250.644758" y="176.895011" style="fill: #00876c; stroke: #00876c"/>
     <use xlink:href="#m72443412bc" x="275.557013" y="176.896055" style="fill: #00876c; stroke: #00876c"/>
     <use xlink:href="#m72443412bc" x="300.469268" y="179.418941" style="fill: #00876c; stroke: #00876c"/>
     <use xlink:href="#m72443412bc" x="325.381523" y="179.419325" style="fill: #00876c; stroke: #00876c"/>
     <use xlink:href="#m72443412bc" x="350.293778" y="179.419654" style="fill: #00876c; stroke: #00876c"/>
     <use xlink:href="#m72443412bc" x="375.206033" y="179.419956" style="fill: #00876c; stroke: #00876c"/>
     <use xlink:href="#m72443412bc" x="400.118288" y="179.420301" style="fill: #00876c; stroke: #00876c"/>
     <use xlink:href="#m72443412bc" x="425.030543" y="197.081796" style="fill: #00876c; stroke: #00876c"/>
    </g>
   </g>
   <g id="line2d_44">
    <path d="M 241.925469 179.419517 
L 433.749833 179.419517 
" clip-path="url(#pb5e0388bb2)" style="fill: none; stroke-dasharray: 2.96,1.28; stroke-dashoffset: 0; stroke: #94a3b8; stroke-width: 0.8"/>
   </g>
   <g id="patch_7">
    <path d="M 241.925469 204.146707 
L 241.925469 48.718652 
" style="fill: none; stroke: #94a3b8; stroke-width: 0.8; stroke-linejoin: miter; stroke-linecap: square"/>
   </g>
   <g id="patch_8">
    <path d="M 241.925469 204.146707 
L 433.749833 204.146707 
" style="fill: none; stroke: #94a3b8; stroke-width: 0.8; stroke-linejoin: miter; stroke-linecap: square"/>
   </g>
   <g id="text_28">
    <g id="patch_9">
     <path d="M 370.316858 75.190805 
L 426.076858 75.190805 
Q 428.076858 75.190805 428.076858 73.190805 
L 428.076858 56.490055 
Q 428.076858 54.490055 426.076858 54.490055 
L 370.316858 54.490055 
Q 368.316858 54.490055 368.316858 56.490055 
L 368.316858 73.190805 
Q 368.316858 75.190805 370.316858 75.190805 
z
" style="fill: #ffffff; opacity: 0.85; stroke: #00876c; stroke-width: 0.6; stroke-linejoin: miter"/>
    </g>
    <text style="fill: #00876c; font: 8px 'DejaVu Sans'" transform="translate(375.384358 62.568805)">top-1=0.240</text>
    <text style="fill: #00876c; font: 8px 'DejaVu Sans'" transform="translate(370.316858 71.527055)">H/logK=0.932</text>
   </g>
   <g id="text_29">
    <text style="fill: #00876c; font: 10px 'DejaVu Sans'; text-anchor: middle" x="337.837651" y="42.718652" transform="rotate(-0 337.837651 42.718652)">TN  (n=2404)</text>
   </g>
  </g>
  <g id="axes_3">
   <g id="patch_10">
    <path d="M 443.250313 204.146707 
L 635.074676 204.146707 
L 635.074676 48.718652 
L 443.250313 48.718652 
z
" style="fill: #ffffff"/>
   </g>
   <g id="matplotlib.axis_5">
    <g id="xtick_17">
     <g id="line2d_45">
      <g>
       <use xlink:href="#m91d731154d" x="451.969602" y="204.146707" style="fill: #1f2937; stroke: #1f2937; stroke-width: 0.8"/>
      </g>
     </g>
     <g id="text_30">
      <text style="fill: #1f2937; font: 8px 'DejaVu Sans'; text-anchor: middle" x="451.969602" y="217.225458" transform="rotate(-0 451.969602 217.225458)">1</text>
     </g>
    </g>
    <g id="xtick_18">
     <g id="line2d_46">
      <g>
       <use xlink:href="#m91d731154d" x="476.881857" y="204.146707" style="fill: #1f2937; stroke: #1f2937; stroke-width: 0.8"/>
      </g>
     </g>
     <g id="text_31">
      <text style="fill: #1f2937; font: 8px 'DejaVu Sans'; text-anchor: middle" x="476.881857" y="217.225458" transform="rotate(-0 476.881857 217.225458)">2</text>
     </g>
    </g>
    <g id="xtick_19">
     <g id="line2d_47">
      <g>
       <use xlink:href="#m91d731154d" x="501.794112" y="204.146707" style="fill: #1f2937; stroke: #1f2937; stroke-width: 0.8"/>
      </g>
     </g>
     <g id="text_32">
      <text style="fill: #1f2937; font: 8px 'DejaVu Sans'; text-anchor: middle" x="501.794112" y="217.225458" transform="rotate(-0 501.794112 217.225458)">3</text>
     </g>
    </g>
    <g id="xtick_20">
     <g id="line2d_48">
      <g>
       <use xlink:href="#m91d731154d" x="526.706367" y="204.146707" style="fill: #1f2937; stroke: #1f2937; stroke-width: 0.8"/>
      </g>
     </g>
     <g id="text_33">
      <text style="fill: #1f2937; font: 8px 'DejaVu Sans'; text-anchor: middle" x="526.706367" y="217.225458" transform="rotate(-0 526.706367 217.225458)">4</text>
     </g>
    </g>
    <g id="xtick_21">
     <g id="line2d_49">
      <g>
       <use xlink:href="#m91d731154d" x="551.618622" y="204.146707" style="fill: #1f2937; stroke: #1f2937; stroke-width: 0.8"/>
      </g>
     </g>
     <g id="text_34">
      <text style="fill: #1f2937; font: 8px 'DejaVu Sans'; text-anchor: middle" x="551.618622" y="217.225458" transform="rotate(-0 551.618622 217.225458)">5</text>
     </g>
    </g>
    <g id="xtick_22">
     <g id="line2d_50">
      <g>
       <use xlink:href="#m91d731154d" x="576.530877" y="204.146707" style="fill: #1f2937; stroke: #1f2937; stroke-width: 0.8"/>
      </g>
     </g>
     <g id="text_35">
      <text style="fill: #1f2937; font: 8px 'DejaVu Sans'; text-anchor: middle" x="576.530877" y="217.225458" transform="rotate(-0 576.530877 217.225458)">6</text>
     </g>
    </g>
    <g id="xtick_23">
     <g id="line2d_51">
      <g>
       <use xlink:href="#m91d731154d" x="601.443132" y="204.146707" style="fill: #1f2937; stroke: #1f2937; stroke-width: 0.8"/>
      </g>
     </g>
     <g id="text_36">
      <text style="fill: #1f2937; font: 8px 'DejaVu Sans'; text-anchor: middle" x="601.443132" y="217.225458" transform="rotate(-0 601.443132 217.225458)">7</text>
     </g>
    </g>
    <g id="xtick_24">
     <g id="line2d_52">
      <g>
       <use xlink:href="#m91d731154d" x="626.355387" y="204.146707" style="fill: #1f2937; stroke: #1f2937; stroke-width: 0.8"/>
      </g>
     </g>
     <g id="text_37">
      <text style="fill: #1f2937; font: 8px 'DejaVu Sans'; text-anchor: middle" x="626.355387" y="217.225458" transform="rotate(-0 626.355387 217.225458)">8</text>
     </g>
    </g>
    <g id="text_38">
     <text style="fill: #1f2937; font: 9px 'DejaVu Sans'; text-anchor: middle" x="539.162494" y="229.727801" transform="rotate(-0 539.162494 229.727801)">Rank (within sample, descending)</text>
    </g>
   </g>
   <g id="matplotlib.axis_6">
    <g id="ytick_13">
     <g id="line2d_53">
      <path d="M 443.250313 197.081796 
L 635.074676 197.081796 
" clip-path="url(#p2752f4a311)" style="fill: none; stroke: #e5e7eb; stroke-opacity: 0.9; stroke-width: 0.75; stroke-linecap: square"/>
     </g>
     <g id="line2d_54">
      <g>
       <use xlink:href="#mae5105c33d" x="443.250313" y="197.081796" style="fill: #1f2937; stroke: #1f2937; stroke-width: 0.8"/>
      </g>
     </g>
    </g>
    <g id="ytick_14">
     <g id="line2d_55">
      <path d="M 443.250313 168.822149 
L 635.074676 168.822149 
" clip-path="url(#p2752f4a311)" style="fill: none; stroke: #e5e7eb; stroke-opacity: 0.9; stroke-width: 0.75; stroke-linecap: square"/>
     </g>
     <g id="line2d_56">
      <g>
       <use xlink:href="#mae5105c33d" x="443.250313" y="168.822149" style="fill: #1f2937; stroke: #1f2937; stroke-width: 0.8"/>
      </g>
     </g>
    </g>
    <g id="ytick_15">
     <g id="line2d_57">
      <path d="M 443.250313 140.562503 
L 635.074676 140.562503 
" clip-path="url(#p2752f4a311)" style="fill: none; stroke: #e5e7eb; stroke-opacity: 0.9; stroke-width: 0.75; stroke-linecap: square"/>
     </g>
     <g id="line2d_58">
      <g>
       <use xlink:href="#mae5105c33d" x="443.250313" y="140.562503" style="fill: #1f2937; stroke: #1f2937; stroke-width: 0.8"/>
      </g>
     </g>
    </g>
    <g id="ytick_16">
     <g id="line2d_59">
      <path d="M 443.250313 112.302856 
L 635.074676 112.302856 
" clip-path="url(#p2752f4a311)" style="fill: none; stroke: #e5e7eb; stroke-opacity: 0.9; stroke-width: 0.75; stroke-linecap: square"/>
     </g>
     <g id="line2d_60">
      <g>
       <use xlink:href="#mae5105c33d" x="443.250313" y="112.302856" style="fill: #1f2937; stroke: #1f2937; stroke-width: 0.8"/>
      </g>
     </g>
    </g>
    <g id="ytick_17">
     <g id="line2d_61">
      <path d="M 443.250313 84.04321 
L 635.074676 84.04321 
" clip-path="url(#p2752f4a311)" style="fill: none; stroke: #e5e7eb; stroke-opacity: 0.9; stroke-width: 0.75; stroke-linecap: square"/>
     </g>
     <g id="line2d_62">
      <g>
       <use xlink:href="#mae5105c33d" x="443.250313" y="84.04321" style="fill: #1f2937; stroke: #1f2937; stroke-width: 0.8"/>
      </g>
     </g>
    </g>
    <g id="ytick_18">
     <g id="line2d_63">
      <path d="M 443.250313 55.783563 
L 635.074676 55.783563 
" clip-path="url(#p2752f4a311)" style="fill: none; stroke: #e5e7eb; stroke-opacity: 0.9; stroke-width: 0.75; stroke-linecap: square"/>
     </g>
     <g id="line2d_64">
      <g>
       <use xlink:href="#mae5105c33d" x="443.250313" y="55.783563" style="fill: #1f2937; stroke: #1f2937; stroke-width: 0.8"/>
      </g>
     </g>
    </g>
   </g>
   <g id="PolyCollection_5">
    <defs>
     <path id="m30bd5b16ff" d="M 451.969602 -183.015957 
L 451.969602 -59.380854 
L 476.881857 -41.717724 
L 501.794112 -41.717724 
L 526.706367 -41.717724 
L 551.618622 -41.717724 
L 576.530877 -41.717724 
L 601.443132 -41.717724 
L 626.355387 -41.717724 
L 626.355387 -59.379429 
L 626.355387 -59.379429 
L 601.443132 -61.90238 
L 576.530877 -65.266409 
L 551.618622 -65.267407 
L 526.706367 -77.040594 
L 501.794112 -77.042409 
L 476.881857 -112.364192 
L 451.969602 -183.015957 
z
"/>
    </defs>
    <g clip-path="url(#p2752f4a311)">
     <use xlink:href="#m30bd5b16ff" x="0" y="238.79952" style="fill: #d97706; fill-opacity: 0.18"/>
    </g>
   </g>
   <g id="PolyCollection_6">
    <defs>
     <path id="mfa136647a4" d="M 451.969602 -77.043562 
L 451.969602 -59.381241 
L 476.881857 -59.380498 
L 501.794112 -59.380157 
L 526.706367 -59.379824 
L 551.618622 -41.717724 
L 576.530877 -41.717724 
L 601.443132 -41.717724 
L 626.355387 -41.717724 
L 626.355387 -59.37905 
L 626.355387 -59.37905 
L 601.443132 -59.37954 
L 576.530877 -61.90242 
L 551.618622 -61.902734 
L 526.706367 -65.266655 
L 501.794112 -65.267434 
L 476.881857 -65.268386 
L 451.969602 -77.043562 
z
"/>
    </defs>
    <g clip-path="url(#p2752f4a311)">
     <use xlink:href="#mfa136647a4" x="0" y="238.79952" style="fill: #d97706; fill-opacity: 0.35"/>
    </g>
   </g>
   <g id="line2d_65">
    <path d="M 451.969602 176.895003 
L 476.881857 179.418517 
L 501.794112 179.419022 
L 526.706367 179.419317 
L 551.618622 179.419661 
L 576.530877 179.419898 
L 601.443132 179.420317 
L 626.355387 197.081796 
" clip-path="url(#p2752f4a311)" style="fill: none; stroke: #d97706; stroke-width: 1.8; stroke-linecap: square"/>
    <defs>
     <path id="m9a380cbdba" d="M 0 2 
C 0.530406 2 1.03916 1.789267 1.414214 1.414214 
C 1.789267 1.03916 2 0.530406 2 0 
C 2 -0.530406 1.789267 -1.03916 1.414214 -1.414214 
C 1.03916 -1.789267 0.530406 -2 0 -2 
C -0.530406 -2 -1.03916 -1.789267 -1.414214 -1.414214 
C -1.789267 -1.03916 -2 -0.530406 -2 0 
C -2 0.530406 -1.789267 1.03916 -1.414214 1.414214 
C -1.03916 1.789267 -0.530406 2 0 2 
z
" style="stroke: #d97706"/>
    </defs>
    <g clip-path="url(#p2752f4a311)">
     <use xlink:href="#m9a380cbdba" x="451.969602" y="176.895003" style="fill: #d97706; stroke: #d97706"/>
     <use xlink:href="#m9a380cbdba" x="476.881857" y="179.418517" style="fill: #d97706; stroke: #d97706"/>
     <use xlink:href="#m9a380cbdba" x="501.794112" y="179.419022" style="fill: #d97706; stroke: #d97706"/>
     <use xlink:href="#m9a380cbdba" x="526.706367" y="179.419317" style="fill: #d97706; stroke: #d97706"/>
     <use xlink:href="#m9a380cbdba" x="551.618622" y="179.419661" style="fill: #d97706; stroke: #d97706"/>
     <use xlink:href="#m9a380cbdba" x="576.530877" y="179.419898" style="fill: #d97706; stroke: #d97706"/>
     <use xlink:href="#m9a380cbdba" x="601.443132" y="179.420317" style="fill: #d97706; stroke: #d97706"/>
     <use xlink:href="#m9a380cbdba" x="626.355387" y="197.081796" style="fill: #d97706; stroke: #d97706"/>
    </g>
   </g>
   <g id="line2d_66">
    <path d="M 443.250313 179.419517 
L 635.074676 179.419517 
" clip-path="url(#p2752f4a311)" style="fill: none; stroke-dasharray: 2.96,1.28; stroke-dashoffset: 0; stroke: #94a3b8; stroke-width: 0.8"/>
   </g>
   <g id="patch_11">
    <path d="M 443.250313 204.146707 
L 443.250313 48.718652 
" style="fill: none; stroke: #94a3b8; stroke-width: 0.8; stroke-linejoin: miter; stroke-linecap: square"/>
   </g>
   <g id="patch_12">
    <path d="M 443.250313 204.146707 
L 635.074676 204.146707 
" style="fill: none; stroke: #94a3b8; stroke-width: 0.8; stroke-linejoin: miter; stroke-linecap: square"/>
   </g>
   <g id="text_39">
    <g id="patch_13">
     <path d="M 571.641702 75.190805 
L 627.401702 75.190805 
Q 629.401702 75.190805 629.401702 73.190805 
L 629.401702 56.490055 
Q 629.401702 54.490055 627.401702 54.490055 
L 571.641702 54.490055 
Q 569.641702 54.490055 569.641702 56.490055 
L 569.641702 73.190805 
Q 569.641702 75.190805 571.641702 75.190805 
z
" style="fill: #ffffff; opacity: 0.85; stroke: #d97706; stroke-width: 0.6; stroke-linejoin: miter"/>
    </g>
    <text style="fill: #d97706; font: 8px 'DejaVu Sans'" transform="translate(576.709202 62.568805)">top-1=0.246</text>
    <text style="fill: #d97706; font: 8px 'DejaVu Sans'" transform="translate(571.641702 71.527055)">H/logK=0.921</text>
   </g>
   <g id="text_40">
    <text style="fill: #d97706; font: 10px 'DejaVu Sans'; text-anchor: middle" x="539.162494" y="42.718652" transform="rotate(-0 539.162494 42.718652)">FP  (n=341)</text>
   </g>
  </g>
  <g id="axes_4">
   <g id="patch_14">
    <path d="M 644.575156 204.146707 
L 836.39952 204.146707 
L 836.39952 48.718652 
L 644.575156 48.718652 
z
" style="fill: #ffffff"/>
   </g>
   <g id="matplotlib.axis_7">
    <g id="xtick_25">
     <g id="line2d_67">
      <g>
       <use xlink:href="#m91d731154d" x="653.294446" y="204.146707" style="fill: #1f2937; stroke: #1f2937; stroke-width: 0.8"/>
      </g>
     </g>
     <g id="text_41">
      <text style="fill: #1f2937; font: 8px 'DejaVu Sans'; text-anchor: middle" x="653.294446" y="217.225458" transform="rotate(-0 653.294446 217.225458)">1</text>
     </g>
    </g>
    <g id="xtick_26">
     <g id="line2d_68">
      <g>
       <use xlink:href="#m91d731154d" x="678.206701" y="204.146707" style="fill: #1f2937; stroke: #1f2937; stroke-width: 0.8"/>
      </g>
     </g>
     <g id="text_42">
      <text style="fill: #1f2937; font: 8px 'DejaVu Sans'; text-anchor: middle" x="678.206701" y="217.225458" transform="rotate(-0 678.206701 217.225458)">2</text>
     </g>
    </g>
    <g id="xtick_27">
     <g id="line2d_69">
      <g>
       <use xlink:href="#m91d731154d" x="703.118956" y="204.146707" style="fill: #1f2937; stroke: #1f2937; stroke-width: 0.8"/>
      </g>
     </g>
     <g id="text_43">
      <text style="fill: #1f2937; font: 8px 'DejaVu Sans'; text-anchor: middle" x="703.118956" y="217.225458" transform="rotate(-0 703.118956 217.225458)">3</text>
     </g>
    </g>
    <g id="xtick_28">
     <g id="line2d_70">
      <g>
       <use xlink:href="#m91d731154d" x="728.031211" y="204.146707" style="fill: #1f2937; stroke: #1f2937; stroke-width: 0.8"/>
      </g>
     </g>
     <g id="text_44">
      <text style="fill: #1f2937; font: 8px 'DejaVu Sans'; text-anchor: middle" x="728.031211" y="217.225458" transform="rotate(-0 728.031211 217.225458)">4</text>
     </g>
    </g>
    <g id="xtick_29">
     <g id="line2d_71">
      <g>
       <use xlink:href="#m91d731154d" x="752.943466" y="204.146707" style="fill: #1f2937; stroke: #1f2937; stroke-width: 0.8"/>
      </g>
     </g>
     <g id="text_45">
      <text style="fill: #1f2937; font: 8px 'DejaVu Sans'; text-anchor: middle" x="752.943466" y="217.225458" transform="rotate(-0 752.943466 217.225458)">5</text>
     </g>
    </g>
    <g id="xtick_30">
     <g id="line2d_72">
      <g>
       <use xlink:href="#m91d731154d" x="777.855721" y="204.146707" style="fill: #1f2937; stroke: #1f2937; stroke-width: 0.8"/>
      </g>
     </g>
     <g id="text_46">
      <text style="fill: #1f2937; font: 8px 'DejaVu Sans'; text-anchor: middle" x="777.855721" y="217.225458" transform="rotate(-0 777.855721 217.225458)">6</text>
     </g>
    </g>
    <g id="xtick_31">
     <g id="line2d_73">
      <g>
       <use xlink:href="#m91d731154d" x="802.767976" y="204.146707" style="fill: #1f2937; stroke: #1f2937; stroke-width: 0.8"/>
      </g>
     </g>
     <g id="text_47">
      <text style="fill: #1f2937; font: 8px 'DejaVu Sans'; text-anchor: middle" x="802.767976" y="217.225458" transform="rotate(-0 802.767976 217.225458)">7</text>
     </g>
    </g>
    <g id="xtick_32">
     <g id="line2d_74">
      <g>
       <use xlink:href="#m91d731154d" x="827.680231" y="204.146707" style="fill: #1f2937; stroke: #1f2937; stroke-width: 0.8"/>
      </g>
     </g>
     <g id="text_48">
      <text style="fill: #1f2937; font: 8px 'DejaVu Sans'; text-anchor: middle" x="827.680231" y="217.225458" transform="rotate(-0 827.680231 217.225458)">8</text>
     </g>
    </g>
    <g id="text_49">
     <text style="fill: #1f2937; font: 9px 'DejaVu Sans'; text-anchor: middle" x="740.487338" y="229.727801" transform="rotate(-0 740.487338 229.727801)">Rank (within sample, descending)</text>
    </g>
   </g>
   <g id="matplotlib.axis_8">
    <g id="ytick_19">
     <g id="line2d_75">
      <path d="M 644.575156 197.081796 
L 836.39952 197.081796 
" clip-path="url(#pbce1f6ecbe)" style="fill: none; stroke: #e5e7eb; stroke-opacity: 0.9; stroke-width: 0.75; stroke-linecap: square"/>
     </g>
     <g id="line2d_76">
      <g>
       <use xlink:href="#mae5105c33d" x="644.575156" y="197.081796" style="fill: #1f2937; stroke: #1f2937; stroke-width: 0.8"/>
      </g>
     </g>
    </g>
    <g id="ytick_20">
     <g id="line2d_77">
      <path d="M 644.575156 168.822149 
L 836.39952 168.822149 
" clip-path="url(#pbce1f6ecbe)" style="fill: none; stroke: #e5e7eb; stroke-opacity: 0.9; stroke-width: 0.75; stroke-linecap: square"/>
     </g>
     <g id="line2d_78">
      <g>
       <use xlink:href="#mae5105c33d" x="644.575156" y="168.822149" style="fill: #1f2937; stroke: #1f2937; stroke-width: 0.8"/>
      </g>
     </g>
    </g>
    <g id="ytick_21">
     <g id="line2d_79">
      <path d="M 644.575156 140.562503 
L 836.39952 140.562503 
" clip-path="url(#pbce1f6ecbe)" style="fill: none; stroke: #e5e7eb; stroke-opacity: 0.9; stroke-width: 0.75; stroke-linecap: square"/>
     </g>
     <g id="line2d_80">
      <g>
       <use xlink:href="#mae5105c33d" x="644.575156" y="140.562503" style="fill: #1f2937; stroke: #1f2937; stroke-width: 0.8"/>
      </g>
     </g>
    </g>
    <g id="ytick_22">
     <g id="line2d_81">
      <path d="M 644.575156 112.302856 
L 836.39952 112.302856 
" clip-path="url(#pbce1f6ecbe)" style="fill: none; stroke: #e5e7eb; stroke-opacity: 0.9; stroke-width: 0.75; stroke-linecap: square"/>
     </g>
     <g id="line2d_82">
      <g>
       <use xlink:href="#mae5105c33d" x="644.575156" y="112.302856" style="fill: #1f2937; stroke: #1f2937; stroke-width: 0.8"/>
      </g>
     </g>
    </g>
    <g id="ytick_23">
     <g id="line2d_83">
      <path d="M 644.575156 84.04321 
L 836.39952 84.04321 
" clip-path="url(#pbce1f6ecbe)" style="fill: none; stroke: #e5e7eb; stroke-opacity: 0.9; stroke-width: 0.75; stroke-linecap: square"/>
     </g>
     <g id="line2d_84">
      <g>
       <use xlink:href="#mae5105c33d" x="644.575156" y="84.04321" style="fill: #1f2937; stroke: #1f2937; stroke-width: 0.8"/>
      </g>
     </g>
    </g>
    <g id="ytick_24">
     <g id="line2d_85">
      <path d="M 644.575156 55.783563 
L 836.39952 55.783563 
" clip-path="url(#pbce1f6ecbe)" style="fill: none; stroke: #e5e7eb; stroke-opacity: 0.9; stroke-width: 0.75; stroke-linecap: square"/>
     </g>
     <g id="line2d_86">
      <g>
       <use xlink:href="#mae5105c33d" x="644.575156" y="55.783563" style="fill: #1f2937; stroke: #1f2937; stroke-width: 0.8"/>
      </g>
     </g>
    </g>
   </g>
   <g id="PolyCollection_7">
    <defs>
     <path id="m313bb106ce" d="M 653.294446 -183.015957 
L 653.294446 -59.380869 
L 678.206701 -41.717724 
L 703.118956 -41.717724 
L 728.031211 -41.717724 
L 752.943466 -41.717724 
L 777.855721 -41.717724 
L 802.767976 -41.717724 
L 827.680231 -41.717724 
L 827.680231 -59.379491 
L 827.680231 -59.379491 
L 802.767976 -61.902286 
L 777.855721 -65.266441 
L 752.943466 -69.975843 
L 728.031211 -77.040088 
L 703.118956 -77.041462 
L 678.206701 -112.364192 
L 653.294446 -183.015957 
z
"/>
    </defs>
    <g clip-path="url(#pbce1f6ecbe)">
     <use xlink:href="#m313bb106ce" x="0" y="238.79952" style="fill: #b91c1c; fill-opacity: 0.18"/>
    </g>
   </g>
   <g id="PolyCollection_8">
    <defs>
     <path id="mfe5f7eaac6" d="M 653.294446 -69.979469 
L 653.294446 -59.381357 
L 678.206701 -59.380426 
L 703.118956 -59.379958 
L 728.031211 -59.379781 
L 752.943466 -59.379539 
L 777.855721 -41.717724 
L 802.767976 -41.717724 
L 827.680231 -41.717724 
L 827.680231 -59.379091 
L 827.680231 -59.379091 
L 802.767976 -59.379595 
L 777.855721 -61.902269 
L 752.943466 -61.902875 
L 728.031211 -61.903493 
L 703.118956 -65.267073 
L 678.206701 -65.268228 
L 653.294446 -69.979469 
z
"/>
    </defs>
    <g clip-path="url(#pbce1f6ecbe)">
     <use xlink:href="#mfe5f7eaac6" x="0" y="238.79952" style="fill: #b91c1c; fill-opacity: 0.35"/>
    </g>
   </g>
   <g id="line2d_87">
    <path d="M 653.294446 176.895112 
L 678.206701 179.418557 
L 703.118956 179.419083 
L 728.031211 179.419376 
L 752.943466 179.419676 
L 777.855721 179.419895 
L 802.767976 179.420231 
L 827.680231 197.081796 
" clip-path="url(#pbce1f6ecbe)" style="fill: none; stroke: #b91c1c; stroke-width: 1.8; stroke-linecap: square"/>
    <defs>
     <path id="mb4fd8f2674" d="M 0 2 
C 0.530406 2 1.03916 1.789267 1.414214 1.414214 
C 1.789267 1.03916 2 0.530406 2 0 
C 2 -0.530406 1.789267 -1.03916 1.414214 -1.414214 
C 1.03916 -1.789267 0.530406 -2 0 -2 
C -0.530406 -2 -1.03916 -1.789267 -1.414214 -1.414214 
C -1.789267 -1.03916 -2 -0.530406 -2 0 
C -2 0.530406 -1.789267 1.03916 -1.414214 1.414214 
C -1.03916 1.789267 -0.530406 2 0 2 
z
" style="stroke: #b91c1c"/>
    </defs>
    <g clip-path="url(#pbce1f6ecbe)">
     <use xlink:href="#mb4fd8f2674" x="653.294446" y="176.895112" style="fill: #b91c1c; stroke: #b91c1c"/>
     <use xlink:href="#mb4fd8f2674" x="678.206701" y="179.418557" style="fill: #b91c1c; stroke: #b91c1c"/>
     <use xlink:href="#mb4fd8f2674" x="703.118956" y="179.419083" style="fill: #b91c1c; stroke: #b91c1c"/>
     <use xlink:href="#mb4fd8f2674" x="728.031211" y="179.419376" style="fill: #b91c1c; stroke: #b91c1c"/>
     <use xlink:href="#mb4fd8f2674" x="752.943466" y="179.419676" style="fill: #b91c1c; stroke: #b91c1c"/>
     <use xlink:href="#mb4fd8f2674" x="777.855721" y="179.419895" style="fill: #b91c1c; stroke: #b91c1c"/>
     <use xlink:href="#mb4fd8f2674" x="802.767976" y="179.420231" style="fill: #b91c1c; stroke: #b91c1c"/>
     <use xlink:href="#mb4fd8f2674" x="827.680231" y="197.081796" style="fill: #b91c1c; stroke: #b91c1c"/>
    </g>
   </g>
   <g id="line2d_88">
    <path d="M 644.575156 179.419517 
L 836.39952 179.419517 
" clip-path="url(#pbce1f6ecbe)" style="fill: none; stroke-dasharray: 2.96,1.28; stroke-dashoffset: 0; stroke: #94a3b8; stroke-width: 0.8"/>
   </g>
   <g id="patch_15">
    <path d="M 644.575156 204.146707 
L 644.575156 48.718652 
" style="fill: none; stroke: #94a3b8; stroke-width: 0.8; stroke-linejoin: miter; stroke-linecap: square"/>
   </g>
   <g id="patch_16">
    <path d="M 644.575156 204.146707 
L 836.39952 204.146707 
" style="fill: none; stroke: #94a3b8; stroke-width: 0.8; stroke-linejoin: miter; stroke-linecap: square"/>
   </g>
   <g id="text_50">
    <g id="patch_17">
     <path d="M 772.966545 75.190805 
L 828.726545 75.190805 
Q 830.726545 75.190805 830.726545 73.190805 
L 830.726545 56.490055 
Q 830.726545 54.490055 828.726545 54.490055 
L 772.966545 54.490055 
Q 770.966545 54.490055 770.966545 56.490055 
L 770.966545 73.190805 
Q 770.966545 75.190805 772.966545 75.190805 
z
" style="fill: #ffffff; opacity: 0.85; stroke: #b91c1c; stroke-width: 0.6; stroke-linejoin: miter"/>
    </g>
    <text style="fill: #b91c1c; font: 8px 'DejaVu Sans'" transform="translate(778.034045 62.568805)">top-1=0.260</text>
    <text style="fill: #b91c1c; font: 8px 'DejaVu Sans'" transform="translate(772.966545 71.527055)">H/logK=0.902</text>
   </g>
   <g id="text_51">
    <text style="fill: #b91c1c; font: 10px 'DejaVu Sans'; text-anchor: middle" x="740.487338" y="42.718652" transform="rotate(-0 740.487338 42.718652)">FN  (n=407)</text>
   </g>
   <g id="legend_1">
    <g id="patch_18">
     <path d="M 651.325156 162.811161 
L 666.325156 162.811161 
L 666.325156 157.561161 
L 651.325156 157.561161 
z
" style="fill: #005f99; fill-opacity: 0.18"/>
    </g>
    <g id="text_52">
     <text style="fill: #1f2937; font: 7.5px 'DejaVu Sans'; text-anchor: start" x="672.325156" y="162.811161" transform="rotate(-0 672.325156 162.811161)">5–95%</text>
    </g>
    <g id="patch_19">
     <path d="M 651.325156 173.819754 
L 666.325156 173.819754 
L 666.325156 168.569754 
L 651.325156 168.569754 
z
" style="fill: #005f99; fill-opacity: 0.35"/>
    </g>
    <g id="text_53">
     <text style="fill: #1f2937; font: 7.5px 'DejaVu Sans'; text-anchor: start" x="672.325156" y="173.819754" transform="rotate(-0 672.325156 173.819754)">IQR (25–75%)</text>
    </g>
    <g id="line2d_89">
     <path d="M 651.325156 182.203348 
L 658.825156 182.203348 
L 666.325156 182.203348 
" style="fill: none; stroke: #005f99; stroke-width: 1.8; stroke-linecap: square"/>
     <g>
      <use xlink:href="#m5a4f69684f" x="658.825156" y="182.203348" style="fill: #005f99; stroke: #005f99"/>
     </g>
    </g>
    <g id="text_54">
     <text style="fill: #1f2937; font: 7.5px 'DejaVu Sans'; text-anchor: start" x="672.325156" y="184.828348" transform="rotate(-0 672.325156 184.828348)">median</text>
    </g>
    <g id="line2d_90">
     <path d="M 651.325156 193.211942 
L 658.825156 193.211942 
L 666.325156 193.211942 
" style="fill: none; stroke-dasharray: 2.96,1.28; stroke-dashoffset: 0; stroke: #94a3b8; stroke-width: 0.8"/>
    </g>
    <g id="text_55">
     <text style="fill: #1f2937; font: 7.5px 'DejaVu Sans'; text-anchor: start" x="672.325156" y="195.836942" transform="rotate(-0 672.325156 195.836942)">1/K=0.125</text>
    </g>
   </g>
  </g>
  <g id="text_56">
   <text style="font: 10.5px 'DejaVu Sans'" transform="translate(235.102377 15.178359)">Population-level conformer selection across BioSNAP test set (n=5493)</text>
   <text style="font: 10.5px 'DejaVu Sans'" transform="translate(247.174916 26.936062)">Sorted weights within each sample, then aggregated by case type</text>
  </g>
 </g>
 <defs>
  <clipPath id="p21f2b2b191">
   <rect x="40.600625" y="48.718652" width="191.824364" height="155.428056"/>
  </clipPath>
  <clipPath id="pb5e0388bb2">
   <rect x="241.925469" y="48.718652" width="191.824364" height="155.428056"/>
  </clipPath>
  <clipPath id="p2752f4a311">
   <rect x="443.250313" y="48.718652" width="191.824364" height="155.428056"/>
  </clipPath>
  <clipPath id="pbce1f6ecbe">
   <rect x="644.575156" y="48.718652" width="191.824364" height="155.428056"/>
  </clipPath>
 </defs>
</svg>
